<svg xmlns="http://www.w3.org/2000/svg" xmlns:xlink="http://www.w3.org/1999/xlink" contentStyleType="text/css" data-diagram-type="DESCRIPTION" height="1739px" preserveAspectRatio="none" style="width:897px;height:1739px;background:#FAFAFA;" version="1.1" viewBox="0 0 897 1739" width="897px" zoomAndPan="magnify"><?plantuml 1.2026.4beta2?><defs/><g><rect fill="#FAFAFA" height="1739" style="stroke:none;stroke-width:1;" width="897" x="0" y="0"/><g class="title" data-source-line="7"><text fill="#000000" font-family="Verdana" font-size="22" font-weight="700" lengthAdjust="spacing" textLength="0" x="447.5" y="15">T3 &amp; T4: StartGroup Assignment and Shot Result Recording</text></g><!--cluster T3: Create StartGroups and Assign Participants to Ranges--><g class="cluster" data-qualified-name="T3. Create StartGroups and Assign Participants to Ranges" data-source-line="9" id="ent0002"><path d="M13.5,42 L473.7109,42 A3.75,3.75 0 0 1 476.2109,44.5 L483.2109,64.2969 L483.5,64.2969 A2.5,2.5 0 0 1 486,66.7969 L486,974.11 A2.5,2.5 0 0 1 483.5,976.61 L13.5,976.61 A2.5,2.5 0 0 1 11,974.11 L11,44.5 A2.5,2.5 0 0 1 13.5,42" fill="#FFFFFF" style="stroke:#000000;stroke-width:1;"/><line style="stroke:#000000;stroke-width:1;" x1="11" x2="483.2109" y1="64.2969" y2="64.2969"/><text fill="#000000" font-family="Verdana" font-size="14" font-weight="700" lengthAdjust="spacing" textLength="459.2109" x="15" y="56.9951">T3: Create StartGroups and Assign Participants to Ranges</text></g><!--cluster T4: Record Shot Results and Calculate Points--><g class="cluster" data-qualified-name="T4. Record Shot Results and Calculate Points" data-source-line="18" id="ent0009"><path d="M512.5,864.86 L869.8369,864.86 A3.75,3.75 0 0 1 872.3369,867.36 L879.3369,887.1569 L879.5,887.1569 A2.5,2.5 0 0 1 882,889.6569 L882,1721.52 A2.5,2.5 0 0 1 879.5,1724.02 L512.5,1724.02 A2.5,2.5 0 0 1 510,1721.52 L510,867.36 A2.5,2.5 0 0 1 512.5,864.86" fill="#FFFFFF" style="stroke:#000000;stroke-width:1;"/><line style="stroke:#000000;stroke-width:1;" x1="510" x2="879.3369" y1="887.1569" y2="887.1569"/><text fill="#000000" font-family="Verdana" font-size="14" font-weight="700" lengthAdjust="spacing" textLength="356.3369" x="514" y="879.8551">T4: Record Shot Results and Calculate Points</text></g><!--entity T3_1--><g class="entity" data-qualified-name="T3. Create StartGroups and Assign Participants to Ranges.T3_1" data-source-line="10" id="ent0003"><rect fill="#FFE6E6" height="52.5938" rx="2.5" ry="2.5" style="stroke:#000000;stroke-width:1;" width="169.085" x="251.46" y="77"/><text fill="#000000" font-family="Verdana" font-size="14" lengthAdjust="spacing" textLength="124.8926" x="261.46" y="99.9951">1. LOOKUP Round</text><text fill="#000000" font-family="Verdana" font-size="14" lengthAdjust="spacing" textLength="149.085" x="261.46" y="116.292">(roundId, roundType)</text></g><!--entity T3_2--><g class="entity" data-qualified-name="T3. Create StartGroups and Assign Participants to Ranges.T3_2" data-source-line="11" id="ent0004"><rect fill="#E6F3FF" height="52.5938" rx="2.5" ry="2.5" style="stroke:#000000;stroke-width:1;" width="146.9365" x="262.53" y="221.6"/><text fill="#000000" font-family="Verdana" font-size="14" lengthAdjust="spacing" textLength="126.9365" x="272.53" y="244.5951">2. SELECT Ranges</text><text fill="#000000" font-family="Verdana" font-size="14" lengthAdjust="spacing" textLength="98.6221" x="272.53" y="260.892">for this Round</text></g><!--entity T3_3--><g class="entity" data-qualified-name="T3. Create StartGroups and Assign Participants to Ranges.T3_3" data-source-line="12" id="ent0005"><rect fill="#FFE6E6" height="52.5938" rx="2.5" ry="2.5" style="stroke:#000000;stroke-width:1;" width="208.7402" x="231.63" y="366.19"/><text fill="#000000" font-family="Verdana" font-size="14" lengthAdjust="spacing" textLength="188.7402" x="241.63" y="389.1851">3. Allocate 3-6 Participants</text><text fill="#000000" font-family="Verdana" font-size="14" lengthAdjust="spacing" textLength="104.8359" x="241.63" y="405.482">per StartGroup</text></g><!--entity T3_4--><g class="entity" data-qualified-name="T3. Create StartGroups and Assign Participants to Ranges.T3_4" data-source-line="13" id="ent0006"><rect fill="#FFE6E6" height="85.1875" rx="2.5" ry="2.5" style="stroke:#000000;stroke-width:1;" width="268.835" x="201.58" y="525.79"/><text fill="#000000" font-family="Verdana" font-size="14" lengthAdjust="spacing" textLength="150.001" x="211.58" y="548.7851">4. INSERT StartGroup</text><text fill="#000000" font-family="Verdana" font-size="14" lengthAdjust="spacing" textLength="189.3896" x="211.58" y="565.082">(groupId, roundId, rangeId,</text><text fill="#000000" font-family="Verdana" font-size="14" lengthAdjust="spacing" textLength="190.0527" x="211.58" y="581.3789">groupNumber, startTarget)</text><text fill="#000000" font-family="Verdana" font-size="14" lengthAdjust="spacing" textLength="248.835" x="211.58" y="597.6757">NOTE: startTarget already in model</text></g><!--entity T3_5--><g class="entity" data-qualified-name="T3. Create StartGroups and Assign Participants to Ranges.T3_5" data-source-line="14" id="ent0007"><rect fill="#E6F3FF" height="68.8906" rx="2.5" ry="2.5" style="stroke:#000000;stroke-width:1;" width="197.9668" x="237.02" y="702.97"/><text fill="#000000" font-family="Verdana" font-size="14" lengthAdjust="spacing" textLength="143.2744" x="247.02" y="725.9651">5. Link Registrations</text><text fill="#000000" font-family="Verdana" font-size="14" lengthAdjust="spacing" textLength="177.9668" x="247.02" y="742.262">via 'includes' relationship</text><text fill="#000000" font-family="Verdana" font-size="14" lengthAdjust="spacing" textLength="110.7627" x="247.02" y="758.5589">(3..6 per group)</text></g><!--entity T3_6--><g class="entity" data-qualified-name="T3. Create StartGroups and Assign Participants to Ranges.T3_6" data-source-line="15" id="ent0008"><rect fill="#E6F3FF" height="52.5938" rx="2.5" ry="2.5" style="stroke:#000000;stroke-width:1;" width="194.084" x="238.96" y="908.01"/><text fill="#000000" font-family="Verdana" font-size="14" lengthAdjust="spacing" textLength="174.084" x="248.96" y="931.0051">6. VERIFY TargetStations</text><text fill="#000000" font-family="Verdana" font-size="14" lengthAdjust="spacing" textLength="105.5742" x="248.96" y="947.302">(28 per Range)</text></g><!--entity T4_1--><g class="entity" data-qualified-name="T4. Record Shot Results and Calculate Points.T4_1" data-source-line="19" id="ent0010"><rect fill="#FFE6E6" height="68.8906" rx="2.5" ry="2.5" style="stroke:#000000;stroke-width:1;" width="280.7295" x="537.64" y="899.86"/><text fill="#000000" font-family="Verdana" font-size="14" lengthAdjust="spacing" textLength="152.4824" x="547.64" y="922.8551">1. LOOKUP ScoreCard</text><text fill="#000000" font-family="Verdana" font-size="14" lengthAdjust="spacing" textLength="107.4814" x="547.64" y="939.152">or CREATE new</text><text fill="#000000" font-family="Verdana" font-size="14" lengthAdjust="spacing" textLength="260.7295" x="547.64" y="955.4489">(scoreCardId, registrationId, roundId)</text></g><!--entity T4_2--><g class="entity" data-qualified-name="T4. Record Shot Results and Calculate Points.T4_2" data-source-line="20" id="ent0011"><rect fill="#FFF9E6" height="36.2969" rx="2.5" ry="2.5" style="stroke:#000000;stroke-width:1;" width="210.8594" x="578.57" y="1060.75"/><text fill="#000000" font-family="Verdana" font-size="14" lengthAdjust="spacing" textLength="190.8594" x="588.57" y="1083.7451">2. FOR each Target (1..28):</text></g><!--entity T4_3a--><g class="entity" data-qualified-name="T4. Record Shot Results and Calculate Points.T4_3a" data-source-line="21" id="ent0012"><rect fill="#E6F3FF" height="52.5938" rx="2.5" ry="2.5" style="stroke:#000000;stroke-width:1;" width="214.168" x="580.92" y="1174.05"/><text fill="#000000" font-family="Verdana" font-size="14" lengthAdjust="spacing" textLength="154.7314" x="590.92" y="1197.0451">3a. GET TargetStation</text><text fill="#000000" font-family="Verdana" font-size="14" lengthAdjust="spacing" textLength="194.168" x="590.92" y="1213.342">(targetNumber, roundType)</text></g><!--entity T4_3b--><g class="entity" data-qualified-name="T4. Record Shot Results and Calculate Points.T4_3b" data-source-line="22" id="ent0013"><rect fill="#FFE6E6" height="68.8906" rx="2.5" ry="2.5" style="stroke:#000000;stroke-width:1;" width="327.0498" x="526.48" y="1333.65"/><text fill="#000000" font-family="Verdana" font-size="14" lengthAdjust="spacing" textLength="157.459" x="536.48" y="1356.6451">3b. INSERT ShotResult</text><text fill="#000000" font-family="Verdana" font-size="14" lengthAdjust="spacing" textLength="307.0498" x="536.48" y="1372.942">(scoreCardId, targetNumber, arrowNumber,</text><text fill="#000000" font-family="Verdana" font-size="14" lengthAdjust="spacing" textLength="210.6289" x="536.48" y="1389.2389">hitZone, pointValue DERIVED)</text></g><!--entity T4_4--><g class="entity" data-qualified-name="T4. Record Shot Results and Calculate Points.T4_4" data-source-line="23" id="ent0014"><rect fill="#FFE6E6" height="68.8906" rx="2.5" ry="2.5" style="stroke:#000000;stroke-width:1;" width="187.248" x="596.38" y="1494.54"/><text fill="#000000" font-family="Verdana" font-size="14" lengthAdjust="spacing" textLength="167.248" x="606.38" y="1517.5351">4. COMPUTE roundTotal</text><text fill="#000000" font-family="Verdana" font-size="14" lengthAdjust="spacing" textLength="139.7676" x="606.38" y="1533.832">(SUM of pointValue)</text><text fill="#000000" font-family="Verdana" font-size="14" lengthAdjust="spacing" textLength="120.4629" x="606.38" y="1550.1289">SET in ScoreCard</text></g><!--entity T4_5--><g class="entity" data-qualified-name="T4. Record Shot Results and Calculate Points.T4_5" data-source-line="24" id="ent0015"><rect fill="#FFE6E6" height="52.5938" rx="2.5" ry="2.5" style="stroke:#000000;stroke-width:1;" width="210.2168" x="584.89" y="1655.43"/><text fill="#000000" font-family="Verdana" font-size="14" lengthAdjust="spacing" textLength="129.1104" x="594.89" y="1678.4251">5. SIGN ScoreCard</text><text fill="#000000" font-family="Verdana" font-size="14" lengthAdjust="spacing" textLength="190.2168" x="594.89" y="1694.722">by Official (Target Captain)</text></g><!--link T3_1 to T3_2--><g class="link" data-entity-1="ent0003" data-entity-2="ent0004" data-link-type="dependency" data-source-line="27" id="lnk16"><path d="M336,129.79 C336,155.59 336,189.25 336,215.14" fill="none" id="T3_1-to-T3_2" style="stroke:#333333;stroke-width:1;"/><polygon fill="#333333" points="336,221.14,340,212.14,336,216.14,332,212.14,336,221.14" style="stroke:#333333;stroke-width:1;"/><text fill="#000000" font-family="Verdana" font-size="13" lengthAdjust="spacing" textLength="29.7832" x="338.698" y="172.6669">uses</text><text fill="#000000" font-family="Verdana" font-size="13" lengthAdjust="spacing" textLength="33.1792" x="337" y="187.7997">(1..*)</text></g><!--link T3_2 to T3_3--><g class="link" data-entity-1="ent0004" data-entity-2="ent0005" data-link-type="dependency" data-source-line="28" id="lnk17"><path d="M336,274.39 C336,300.18 336,333.85 336,359.74" fill="none" id="T3_2-to-T3_3" style="stroke:#333333;stroke-width:1;"/><polygon fill="#333333" points="336,365.74,340,356.74,336,360.74,332,356.74,336,365.74" style="stroke:#333333;stroke-width:1;"/><text fill="#000000" font-family="Verdana" font-size="13" lengthAdjust="spacing" textLength="130.4316" x="337" y="317.2569">SELECT participants</text><text fill="#000000" font-family="Verdana" font-size="13" lengthAdjust="spacing" textLength="120.4214" x="342.0051" y="332.3897">from Registrations</text></g><!--link T3_3 to T3_4--><g class="link" data-entity-1="ent0005" data-entity-2="ent0006" data-link-type="dependency" data-source-line="29" id="lnk18"><path d="M336,419.15 C336,447.11 336,486.29 336,519.42" fill="none" id="T3_3-to-T3_4" style="stroke:#333333;stroke-width:1;"/><polygon fill="#333333" points="336,525.42,340,516.42,336,520.42,332,516.42,336,525.42" style="stroke:#333333;stroke-width:1;"/><text fill="#000000" font-family="Verdana" font-size="13" lengthAdjust="spacing" textLength="83.0845" x="337" y="461.8569">CREATE with</text><text fill="#000000" font-family="Verdana" font-size="13" lengthAdjust="spacing" textLength="72.8774" x="342.1035" y="476.9897">startTarget</text><text fill="#000000" font-family="Verdana" font-size="13" lengthAdjust="spacing" textLength="43.2212" x="356.9316" y="492.1225">(1..28)</text></g><!--link T3_4 to T3_5--><g class="link" data-entity-1="ent0006" data-entity-2="ent0007" data-link-type="dependency" data-source-line="30" id="lnk19"><path d="M336,611.1 C336,639.32 336,670.11 336,696.52" fill="none" id="T3_4-to-T3_5" style="stroke:#333333;stroke-width:1;"/><polygon fill="#333333" points="336,702.52,340,693.52,336,697.52,332,693.52,336,702.52" style="stroke:#333333;stroke-width:1;"/><text fill="#000000" font-family="Verdana" font-size="13" lengthAdjust="spacing" textLength="53.8726" x="337" y="654.0369">includes</text><text fill="#000000" font-family="Verdana" font-size="13" lengthAdjust="spacing" textLength="34.9502" x="346.4612" y="669.1697">(3..6)</text></g><!--link T3_5 to T3_6--><g class="link" data-entity-1="ent0007" data-entity-2="ent0008" data-link-type="dependency" data-source-line="31" id="lnk20"><path d="M336,771.92 C336,810.45 336,866.85 336,901.69" fill="none" id="T3_5-to-T3_6" style="stroke:#333333;stroke-width:1;"/><polygon fill="#333333" points="336,907.69,340,898.69,336,902.69,332,898.69,336,907.69" style="stroke:#333333;stroke-width:1;"/><text fill="#000000" font-family="Verdana" font-size="13" lengthAdjust="spacing" textLength="45.3921" x="361.4766" y="814.9269">VERIFY</text><text fill="#000000" font-family="Verdana" font-size="13" lengthAdjust="spacing" textLength="55.0278" x="356.6587" y="830.0597">contains</text><text fill="#000000" font-family="Verdana" font-size="13" lengthAdjust="spacing" textLength="94.3452" x="337" y="845.1925">(28 per range)</text></g><!--link T3_4 to T4_1--><g class="link" data-entity-1="ent0006" data-entity-2="ent0010" data-link-type="dependency" data-source-line="33" id="lnk21"><path d="M375.23,611.13 C443.66,683.94 579.401,828.3878 642.171,895.1778" fill="none" id="T3_4-to-T4_1" style="stroke:#333333;stroke-width:1;stroke-dasharray:7,7;"/><polygon fill="#333333" points="646.28,899.55,643.0313,890.2524,642.8558,895.9065,637.2017,895.7311,646.28,899.55" style="stroke:#333333;stroke-width:1;"/><text fill="#000000" font-family="Verdana" font-size="13" lengthAdjust="spacing" textLength="45.7031" x="546.2297" y="734.4869">LATER:</text><text fill="#000000" font-family="Verdana" font-size="13" lengthAdjust="spacing" textLength="88.1626" x="525" y="749.6197">record scores</text></g><!--link T4_1 to T4_2--><g class="link" data-entity-1="ent0010" data-entity-2="ent0011" data-link-type="dependency" data-source-line="34" id="lnk22"><path d="M679.42,969.1 C680.63,997.76 682.0587,1031.7353 683.0087,1054.3953" fill="none" id="T4_1-to-T4_2" style="stroke:#333333;stroke-width:1;"/><polygon fill="#333333" points="683.26,1060.39,686.8795,1051.2303,683.0506,1055.3944,678.8865,1051.5654,683.26,1060.39" style="stroke:#333333;stroke-width:1;"/><text fill="#000000" font-family="Verdana" font-size="13" lengthAdjust="spacing" textLength="43.3354" x="693.2576" y="1011.8169">Iterate</text><text fill="#000000" font-family="Verdana" font-size="13" lengthAdjust="spacing" textLength="65.8506" x="682" y="1026.9497">all targets</text></g><!--link T4_2 to T4_3a--><g class="link" data-entity-1="ent0011" data-entity-2="ent0012" data-link-type="dependency" data-source-line="35" id="lnk23"><path d="M684.59,1097.53 C685.26,1117.64 686.169,1144.7334 686.939,1167.7034" fill="none" id="T4_2-to-T4_3a" style="stroke:#333333;stroke-width:1;"/><polygon fill="#333333" points="687.14,1173.7,690.8362,1164.571,686.9725,1168.7028,682.8407,1164.8391,687.14,1173.7" style="stroke:#333333;stroke-width:1;"/><text fill="#000000" font-family="Verdana" font-size="13" lengthAdjust="spacing" textLength="55.6626" x="687" y="1140.1169">atTarget</text></g><!--link T4_3a to T4_3b--><g class="link" data-entity-1="ent0012" data-entity-2="ent0013" data-link-type="dependency" data-source-line="36" id="lnk24"><path d="M688.31,1226.88 C688.65,1255.39 689.1377,1295.6704 689.5177,1327.2004" fill="none" id="T4_3a-to-T4_3b" style="stroke:#333333;stroke-width:1;"/><polygon fill="#333333" points="689.59,1333.2,693.4812,1324.1524,689.5297,1328.2004,685.4818,1324.2489,689.59,1333.2" style="stroke:#333333;stroke-width:1;"/><text fill="#000000" font-family="Verdana" font-size="13" lengthAdjust="spacing" textLength="69.0054" x="691.8599" y="1269.7169">INSERT for</text><text fill="#000000" font-family="Verdana" font-size="13" lengthAdjust="spacing" textLength="72.7251" x="690" y="1284.8497">each arrow</text><text fill="#000000" font-family="Verdana" font-size="13" lengthAdjust="spacing" textLength="34.9502" x="708.8875" y="1299.9825">(1..3)</text></g><!--link T4_3b to T4_4--><g class="link" data-entity-1="ent0013" data-entity-2="ent0014" data-link-type="dependency" data-source-line="37" id="lnk25"><path d="M690,1402.79 C690,1429.66 690,1461.13 690,1488.06" fill="none" id="T4_3b-to-T4_4" style="stroke:#333333;stroke-width:1;"/><polygon fill="#333333" points="690,1494.06,694,1485.06,690,1489.06,686,1485.06,690,1494.06" style="stroke:#333333;stroke-width:1;"/><text fill="#000000" font-family="Verdana" font-size="13" lengthAdjust="spacing" textLength="48.3057" x="691" y="1445.6069">SUM all</text><text fill="#000000" font-family="Verdana" font-size="13" lengthAdjust="spacing" textLength="39.9268" x="695.1895" y="1460.7397">points</text></g><!--link T4_4 to T4_5--><g class="link" data-entity-1="ent0014" data-entity-2="ent0015" data-link-type="dependency" data-source-line="38" id="lnk26"><path d="M690,1563.81 C690,1591.41 690,1623.83 690,1648.98" fill="none" id="T4_4-to-T4_5" style="stroke:#333333;stroke-width:1;"/><polygon fill="#333333" points="690,1654.98,694,1645.98,690,1649.98,686,1645.98,690,1654.98" style="stroke:#333333;stroke-width:1;"/><text fill="#000000" font-family="Verdana" font-size="13" lengthAdjust="spacing" textLength="59.7378" x="691" y="1606.4969">signedBy</text><text fill="#000000" font-family="Verdana" font-size="13" lengthAdjust="spacing" textLength="45.335" x="698.2014" y="1621.6297">Official</text></g><?plantuml-src VLLHRzem47xFhxWnQOEfZLeI8iR399ec5LeB2D9Aco9L9XYmQfp8CQlGjF--i-FGG4NXWSHtz_cxk--EJsf3jnGAJfXmoXSc2YB95XOaUrdBV2UMOSvp2P_ZeVusF8YK-QirUkRJC6QSbENDAKRKZ_su_yujbqighSlLLH24eUCefZY5n8ClaFW3c2iYrHrY5J0iIxOMMoeK4B64-IPNCAFbZkkV3B6OM3jEWNUJDOLMuWqWb9GesW0fJMY515CyPHahY50bg1ncHAnfsOA_3k17qapX0P9fNRjmFvdyV9p2J2ULYhP9RhIy0FEGx0lQQG4faVVpDPOiZe8eE4NfkZ2FxgCmiHUbOeM9gmqhAzWQe8lr2c8lZay1F1U6dEUPJicx38xufwAWif5e3UQTO-ExC1hFerdI2CB4TDkAGsBcGPF5XrGOstYtNL1v0QMEIeXSKzL9nNYIH8Fc6H2EjL_kWGdOvalAQqB-EK8zB38JBzZBDIkL98hb0jFwmmXyPIBZkoKjls80homRfkbwhXk0pjnmE_IWTww4WGjFqMmK_uAA9kPkxsbt-mR8zEO051o0_ZMbXSAi9DTKOQMjaF1intMBfZd3ndmefpbYq918b1HA8Pn5moG2GL-HJbcRJ0yQDMaqnzBqFzHSF9a19Td6PWpjQzVjzZk3EhQhO-FlxsCzui9Tb1nN2fafyrxhu7G0_6UFd1NmuarqMBUgRAUv7iERPMDVKh5XwdSkw0KKkhPFXEyet68_dwBRj-iN7qW-d3nC7x765UjS4OxNpnyV85yrC57GSqmSfNjeK8t-aNpdexjniwMBFKnMAvnGmg5jgn-IGk72FR3j7V1GO6PxN5x-gBR007QbtXAwOTywZZcpHW-DTfSKHqjW9VFjyGGvnjt6-HXdLVRAr2OLZOcjBa9bECRHHlGmefu-Es_6eLSx1EXGZLGgibpev1hJP9P7nx6GhWxHQXt0FNAO3L8Xgp4o2a2kVbq0tnHWf2YcGLD1EBV2C4xTsWcrDW1YCt2gWzgqq02Lsd3Hfi8CWT5JbQhNSIet6w2BewM0T-4sDSFhc6DhrwNG_njqURDFHTtP_m00?></g></svg>