<svg xmlns="http://www.w3.org/2000/svg" xmlns:xlink="http://www.w3.org/1999/xlink" contentStyleType="text/css" data-diagram-type="DESCRIPTION" height="1383px" preserveAspectRatio="none" style="width:1472px;height:1383px;background:#FAFAFA;" version="1.1" viewBox="0 0 1472 1383" width="1472px" zoomAndPan="magnify"><?plantuml 1.2026.4beta2?><defs/><g><rect fill="#FAFAFA" height="1383" style="stroke:none;stroke-width:1;" width="1472" x="0" y="0"/><g class="title" data-source-line="7"><text fill="#000000" font-family="Verdana" font-size="22" font-weight="700" lengthAdjust="spacing" textLength="688.0479" x="390.9761" y="35.4209">T7 &amp; T8: Document Protests and Export Official Results</text></g><!--cluster T7: Document Protest and Assign Decision Maker--><g class="cluster" data-qualified-name="T7. Document Protest and Assign Decision Maker" data-source-line="9" id="ent0002"><path d="M13.5,57.6094 L404.6201,57.6094 A3.75,3.75 0 0 1 407.1201,60.1094 L414.1201,79.9063 L414.5,79.9063 A2.5,2.5 0 0 1 417,82.4063 L417,1090.1494 A2.5,2.5 0 0 1 414.5,1092.6494 L13.5,1092.6494 A2.5,2.5 0 0 1 11,1090.1494 L11,60.1094 A2.5,2.5 0 0 1 13.5,57.6094" fill="#FFFFFF" style="stroke:#000000;stroke-width:1;"/><line style="stroke:#000000;stroke-width:1;" x1="11" x2="414.1201" y1="79.9063" y2="79.9063"/><text fill="#000000" font-family="Verdana" font-size="14" font-weight="700" lengthAdjust="spacing" textLength="390.1201" x="15" y="72.6045">T7: Document Protest and Assign Decision Maker</text></g><!--cluster T8: Export Official Results List (IFAA Format)--><g class="cluster" data-qualified-name="T8. Export Official Results List .IFAA Format." data-source-line="19" id="ent0010"><path d="M443.5,57.6094 L799.8867,57.6094 A3.75,3.75 0 0 1 802.3867,60.1094 L809.3867,79.9063 L1454.5,79.9063 A2.5,2.5 0 0 1 1457,82.4063 L1457,1366.3394 A2.5,2.5 0 0 1 1454.5,1368.8394 L443.5,1368.8394 A2.5,2.5 0 0 1 441,1366.3394 L441,60.1094 A2.5,2.5 0 0 1 443.5,57.6094" fill="#FFFFFF" style="stroke:#000000;stroke-width:1;"/><line style="stroke:#000000;stroke-width:1;" x1="441" x2="809.3867" y1="79.9063" y2="79.9063"/><text fill="#000000" font-family="Verdana" font-size="14" font-weight="700" lengthAdjust="spacing" textLength="355.3867" x="445" y="72.6045">T8: Export Official Results List (IFAA Format)</text></g><!--entity T7_1--><g class="entity" data-qualified-name="T7. Document Protest and Assign Decision Maker.T7_1" data-source-line="10" id="ent0003"><rect fill="#FFE6E6" height="52.5938" rx="2.5" ry="2.5" style="stroke:#000000;stroke-width:1;" width="189.7021" x="119.15" y="92.6094"/><text fill="#000000" font-family="Verdana" font-size="14" lengthAdjust="spacing" textLength="169.7021" x="129.15" y="115.6045">1. INCIDENT: Participant</text><text fill="#000000" font-family="Verdana" font-size="14" lengthAdjust="spacing" textLength="134.5039" x="129.15" y="131.9014">contests a decision</text></g><!--entity T7_2--><g class="entity" data-qualified-name="T7. Document Protest and Assign Decision Maker.T7_2" data-source-line="11" id="ent0004"><rect fill="#E6F3FF" height="52.5938" rx="2.5" ry="2.5" style="stroke:#000000;stroke-width:1;" width="195.998" x="116" y="237.1994"/><text fill="#000000" font-family="Verdana" font-size="14" lengthAdjust="spacing" textLength="143.5068" x="126" y="260.1945">2. IDENTIFY affected</text><text fill="#000000" font-family="Verdana" font-size="14" lengthAdjust="spacing" textLength="175.998" x="126" y="276.4914">Registration (Participant)</text></g><!--entity T7_3--><g class="entity" data-qualified-name="T7. Document Protest and Assign Decision Maker.T7_3" data-source-line="12" id="ent0005"><rect fill="#FFE6E6" height="68.8906" rx="2.5" ry="2.5" style="stroke:#000000;stroke-width:1;" width="196.9551" x="115.52" y="381.7894"/><text fill="#000000" font-family="Verdana" font-size="14" lengthAdjust="spacing" textLength="176.9551" x="125.52" y="404.7845">3. CREATE Protest record</text><text fill="#000000" font-family="Verdana" font-size="14" lengthAdjust="spacing" textLength="165.4775" x="125.52" y="421.0814">(protestId, protestDate,</text><text fill="#000000" font-family="Verdana" font-size="14" lengthAdjust="spacing" textLength="135.29" x="125.52" y="437.3782">protestDescription)</text></g><!--entity T7_4--><g class="entity" data-qualified-name="T7. Document Protest and Assign Decision Maker.T7_4" data-source-line="13" id="ent0006"><rect fill="#FFE6E6" height="68.8906" rx="2.5" ry="2.5" style="stroke:#000000;stroke-width:1;" width="193.8311" x="116.08" y="542.6794"/><text fill="#000000" font-family="Verdana" font-size="14" lengthAdjust="spacing" textLength="123.8809" x="126.08" y="565.6745">4. ASSIGN Official</text><text fill="#000000" font-family="Verdana" font-size="14" lengthAdjust="spacing" textLength="168.8682" x="126.08" y="581.9714">(Turnierdirektor or TCO)</text><text fill="#000000" font-family="Verdana" font-size="14" lengthAdjust="spacing" textLength="173.8311" x="126.08" y="598.2682">via 'decides' relationship</text></g><!--entity T7_5--><g class="entity" data-qualified-name="T7. Document Protest and Assign Decision Maker.T7_5" data-source-line="14" id="ent0007"><rect fill="#FFF9E6" height="52.5938" rx="2.5" ry="2.5" style="stroke:#000000;stroke-width:1;" width="179.9678" x="123.02" y="703.5694"/><text fill="#000000" font-family="Verdana" font-size="14" lengthAdjust="spacing" textLength="134.9346" x="133.02" y="726.5645">5. Official REVIEWS</text><text fill="#000000" font-family="Verdana" font-size="14" lengthAdjust="spacing" textLength="159.9678" x="133.02" y="742.8614">evidence and rulebook</text></g><!--entity T7_6--><g class="entity" data-qualified-name="T7. Document Protest and Assign Decision Maker.T7_6" data-source-line="15" id="ent0008"><rect fill="#FFE6E6" height="68.8906" rx="2.5" ry="2.5" style="stroke:#000000;stroke-width:1;" width="182.8662" x="121.57" y="848.1694"/><text fill="#000000" font-family="Verdana" font-size="14" lengthAdjust="spacing" textLength="128.3516" x="131.57" y="871.1645">6. UPDATE Protest</text><text fill="#000000" font-family="Verdana" font-size="14" lengthAdjust="spacing" textLength="140.4307" x="131.57" y="887.4614">SET protestDecision</text><text fill="#000000" font-family="Verdana" font-size="14" lengthAdjust="spacing" textLength="162.8662" x="131.57" y="903.7582">(formal text resolution)</text></g><!--entity T7_7--><g class="entity" data-qualified-name="T7. Document Protest and Assign Decision Maker.T7_7" data-source-line="16" id="ent0009"><rect fill="#E6F3FF" height="52.5938" rx="2.5" ry="2.5" style="stroke:#000000;stroke-width:1;" width="165.3252" x="130.34" y="1024.0594"/><text fill="#000000" font-family="Verdana" font-size="14" lengthAdjust="spacing" textLength="145.3252" x="140.34" y="1047.0545">7. AUDIT trail logged</text><text fill="#000000" font-family="Verdana" font-size="14" lengthAdjust="spacing" textLength="116.5869" x="140.34" y="1063.3514">in Protest record</text></g><!--entity T8_1--><g class="entity" data-qualified-name="T8. Export Official Results List .IFAA Format..T8_1" data-source-line="20" id="ent0011"><rect fill="#E6F3FF" height="52.5938" rx="2.5" ry="2.5" style="stroke:#000000;stroke-width:1;" width="135.0693" x="804.47" y="92.6094"/><text fill="#000000" font-family="Verdana" font-size="14" lengthAdjust="spacing" textLength="115.0693" x="814.47" y="115.6045">1. SELECT Event</text><text fill="#000000" font-family="Verdana" font-size="14" lengthAdjust="spacing" textLength="64.1006" x="814.47" y="131.9014">to export</text></g><!--entity T8_2--><g class="entity" data-qualified-name="T8. Export Official Results List .IFAA Format..T8_2" data-source-line="21" id="ent0012"><rect fill="#FFE6E6" height="52.5938" rx="2.5" ry="2.5" style="stroke:#000000;stroke-width:1;" width="201.8359" x="771.08" y="237.1994"/><text fill="#000000" font-family="Verdana" font-size="14" lengthAdjust="spacing" textLength="127.1826" x="781.08" y="260.1945">2. SELECT Rounds</text><text fill="#000000" font-family="Verdana" font-size="14" lengthAdjust="spacing" textLength="181.8359" x="781.08" y="276.4914">(R1, R2, R3, R4 or subset)</text></g><!--entity T8_3--><g class="entity" data-qualified-name="T8. Export Official Results List .IFAA Format..T8_3" data-source-line="22" id="ent0013"><rect fill="#FFF9E6" height="36.2969" rx="2.5" ry="2.5" style="stroke:#000000;stroke-width:1;" width="263.6123" x="740.19" y="398.0894"/><text fill="#000000" font-family="Verdana" font-size="14" lengthAdjust="spacing" textLength="243.6123" x="750.19" y="421.0845">3. FOR each CompetitionCategory:</text></g><!--entity T8_3a--><g class="entity" data-qualified-name="T8. Export Official Results List .IFAA Format..T8_3a" data-source-line="23" id="ent0014"><rect fill="#E6F3FF" height="52.5938" rx="2.5" ry="2.5" style="stroke:#000000;stroke-width:1;" width="207.8242" x="768.09" y="550.8294"/><text fill="#000000" font-family="Verdana" font-size="14" lengthAdjust="spacing" textLength="152.4961" x="778.09" y="573.8245">3a. LOOKUP Category</text><text fill="#000000" font-family="Verdana" font-size="14" lengthAdjust="spacing" textLength="187.8242" x="778.09" y="590.1214">(style, division, classLevel)</text></g><!--entity T8_3b--><g class="entity" data-qualified-name="T8. Export Official Results List .IFAA Format..T8_3b" data-source-line="24" id="ent0015"><rect fill="#FFE6E6" height="52.5938" rx="2.5" ry="2.5" style="stroke:#000000;stroke-width:1;" width="216.3828" x="763.81" y="703.5694"/><text fill="#000000" font-family="Verdana" font-size="14" lengthAdjust="spacing" textLength="196.3828" x="773.81" y="726.5645">3b. GET TournamentResults</text><text fill="#000000" font-family="Verdana" font-size="14" lengthAdjust="spacing" textLength="157.001" x="773.81" y="742.8614">sorted by rankPosition</text></g><!--entity T8_3c--><g class="entity" data-qualified-name="T8. Export Official Results List .IFAA Format..T8_3c" data-source-line="25" id="ent0016"><rect fill="#FFF9E6" height="36.2969" rx="2.5" ry="2.5" style="stroke:#000000;stroke-width:1;" width="250.9658" x="746.52" y="864.4594"/><text fill="#000000" font-family="Verdana" font-size="14" lengthAdjust="spacing" textLength="230.9658" x="756.52" y="887.4545">3c. FOR each ranked participant:</text></g><!--entity T8_3c_i--><g class="entity" data-qualified-name="T8. Export Official Results List .IFAA Format..T8_3c_i" data-source-line="26" id="ent0017"><rect fill="#E6F3FF" height="52.5938" rx="2.5" ry="2.5" style="stroke:#000000;stroke-width:1;" width="175.0391" x="457.48" y="1024.0594"/><text fill="#000000" font-family="Verdana" font-size="14" lengthAdjust="spacing" textLength="154.1709" x="467.48" y="1047.0545">3c-i. Participant name</text><text fill="#000000" font-family="Verdana" font-size="14" lengthAdjust="spacing" textLength="155.0391" x="467.48" y="1063.3514">(firstName, lastName)</text></g><!--entity T8_3c_ii--><g class="entity" data-qualified-name="T8. Export Official Results List .IFAA Format..T8_3c_ii" data-source-line="27" id="ent0018"><rect fill="#E6F3FF" height="52.5938" rx="2.5" ry="2.5" style="stroke:#000000;stroke-width:1;" width="111.0342" x="667.48" y="1024.0594"/><text fill="#000000" font-family="Verdana" font-size="14" lengthAdjust="spacing" textLength="84.2051" x="677.48" y="1047.0545">3c-ii. Nation</text><text fill="#000000" font-family="Verdana" font-size="14" lengthAdjust="spacing" textLength="91.0342" x="677.48" y="1063.3514">(nationCode)</text></g><!--entity T8_3c_iii--><g class="entity" data-qualified-name="T8. Export Official Results List .IFAA Format..T8_3c_iii" data-source-line="28" id="ent0019"><rect fill="#E6F3FF" height="52.5938" rx="2.5" ry="2.5" style="stroke:#000000;stroke-width:1;" width="163.6025" x="813.2" y="1024.0594"/><text fill="#000000" font-family="Verdana" font-size="14" lengthAdjust="spacing" textLength="143.6025" x="823.2" y="1047.0545">3c-iii. Club affiliation</text><text fill="#000000" font-family="Verdana" font-size="14" lengthAdjust="spacing" textLength="67.6621" x="823.2" y="1063.3514">(optional)</text></g><!--entity T8_3c_iv--><g class="entity" data-qualified-name="T8. Export Official Results List .IFAA Format..T8_3c_iv" data-source-line="29" id="ent0020"><rect fill="#FFE6E6" height="52.5938" rx="2.5" ry="2.5" style="stroke:#000000;stroke-width:1;" width="181.2188" x="1011.39" y="1024.0594"/><text fill="#000000" font-family="Verdana" font-size="14" lengthAdjust="spacing" textLength="161.2188" x="1021.39" y="1047.0545">3c-iv. Per-round scores</text><text fill="#000000" font-family="Verdana" font-size="14" lengthAdjust="spacing" textLength="112.1641" x="1021.39" y="1063.3514">(R1, R2, R3, R4)</text></g><!--entity T8_3c_v--><g class="entity" data-qualified-name="T8. Export Official Results List .IFAA Format..T8_3c_v" data-source-line="30" id="ent0021"><rect fill="#FFE6E6" height="52.5938" rx="2.5" ry="2.5" style="stroke:#000000;stroke-width:1;" width="164.3066" x="1227.85" y="1024.0594"/><text fill="#000000" font-family="Verdana" font-size="14" lengthAdjust="spacing" textLength="121.3652" x="1237.85" y="1047.0545">3c-v. Total points</text><text fill="#000000" font-family="Verdana" font-size="14" lengthAdjust="spacing" textLength="144.3066" x="1237.85" y="1063.3514">and Tie-break status</text></g><!--entity T8_4--><g class="entity" data-qualified-name="T8. Export Official Results List .IFAA Format..T8_4" data-source-line="31" id="ent0022"><rect fill="#FFE6E6" height="52.5938" rx="2.5" ry="2.5" style="stroke:#000000;stroke-width:1;" width="204.1123" x="1207.94" y="1170.6494"/><text fill="#000000" font-family="Verdana" font-size="14" lengthAdjust="spacing" textLength="184.1123" x="1217.94" y="1193.6445">4. FORMAT: IFAA standard</text><text fill="#000000" font-family="Verdana" font-size="14" lengthAdjust="spacing" textLength="78.7363" x="1217.94" y="1209.9414">PDF or CSV</text></g><!--entity T8_5--><g class="entity" data-qualified-name="T8. Export Official Results List .IFAA Format..T8_5" data-source-line="32" id="ent0023"><rect fill="#FFE6E6" height="52.5938" rx="2.5" ry="2.5" style="stroke:#000000;stroke-width:1;" width="201.5967" x="1209.2" y="1300.2494"/><text fill="#000000" font-family="Verdana" font-size="14" lengthAdjust="spacing" textLength="133.9092" x="1219.2" y="1323.2445">5. EXPORT file with</text><text fill="#000000" font-family="Verdana" font-size="14" lengthAdjust="spacing" textLength="181.5967" x="1219.2" y="1339.5414">timestamp and DFBV seal</text></g><!--link T7_1 to T7_2--><g class="link" data-entity-1="ent0003" data-entity-2="ent0004" data-link-type="dependency" data-source-line="35" id="lnk24"><path d="M214,145.3994 C214,171.1894 214,204.8594 214,230.7394" fill="none" id="T7_1-to-T7_2" style="stroke:#333333;stroke-width:1;"/><polygon fill="#333333" points="214,236.7394,218,227.7394,214,231.7394,210,227.7394,214,236.7394" style="stroke:#333333;stroke-width:1;"/><text fill="#000000" font-family="Verdana" font-size="13" lengthAdjust="spacing" textLength="58.9761" x="215" y="195.7663">IDENTIFY</text></g><!--link T7_2 to T7_3--><g class="link" data-entity-1="ent0004" data-entity-2="ent0005" data-link-type="dependency" data-source-line="36" id="lnk25"><path d="M214,290.0694 C214,315.1794 214,347.6494 214,375.3094" fill="none" id="T7_2-to-T7_3" style="stroke:#333333;stroke-width:1;"/><polygon fill="#333333" points="214,381.3094,218,372.3094,214,376.3094,210,372.3094,214,381.3094" style="stroke:#333333;stroke-width:1;"/><text fill="#000000" font-family="Verdana" font-size="13" lengthAdjust="spacing" textLength="58.8428" x="255.2568" y="332.8563">concerns</text><text fill="#000000" font-family="Verdana" font-size="13" lengthAdjust="spacing" textLength="139.3564" x="215" y="347.9891">(Protest Registration)</text></g><!--link T7_3 to T7_4--><g class="link" data-entity-1="ent0005" data-entity-2="ent0006" data-link-type="dependency" data-source-line="37" id="lnk26"><path d="M213.79,450.9394 C213.62,477.8094 213.4179,509.2795 213.2479,536.2095" fill="none" id="T7_3-to-T7_4" style="stroke:#333333;stroke-width:1;"/><polygon fill="#333333" points="213.21,542.2094,217.2667,533.2348,213.2416,537.2095,209.2669,533.1843,213.21,542.2094" style="stroke:#333333;stroke-width:1;"/><text fill="#000000" font-family="Verdana" font-size="13" lengthAdjust="spacing" textLength="50.0322" x="241.8408" y="493.7463">decides</text><text fill="#000000" font-family="Verdana" font-size="13" lengthAdjust="spacing" textLength="105.7139" x="214" y="508.8791">(Official Protest)</text></g><!--link T7_4 to T7_5--><g class="link" data-entity-1="ent0006" data-entity-2="ent0007" data-link-type="dependency" data-source-line="38" id="lnk27"><path d="M213,611.9594 C213,639.5594 213,671.9794 213,697.1194" fill="none" id="T7_4-to-T7_5" style="stroke:#333333;stroke-width:1;"/><polygon fill="#333333" points="213,703.1194,217,694.1194,213,698.1194,209,694.1194,213,703.1194" style="stroke:#333333;stroke-width:1;"/><text fill="#000000" font-family="Verdana" font-size="13" lengthAdjust="spacing" textLength="94.6499" x="214" y="654.6363">Manual review</text><text fill="#000000" font-family="Verdana" font-size="13" lengthAdjust="spacing" textLength="72.4204" x="225.1147" y="669.7691">(off-model)</text></g><!--link T7_5 to T7_6--><g class="link" data-entity-1="ent0007" data-entity-2="ent0008" data-link-type="dependency" data-source-line="39" id="lnk28"><path d="M213,756.4394 C213,781.5594 213,814.0294 213,841.6894" fill="none" id="T7_5-to-T7_6" style="stroke:#333333;stroke-width:1;"/><polygon fill="#333333" points="213,847.6894,217,838.6894,213,842.6894,209,838.6894,213,847.6894" style="stroke:#333333;stroke-width:1;"/><text fill="#000000" font-family="Verdana" font-size="13" lengthAdjust="spacing" textLength="52.4126" x="214" y="806.7363">UPDATE</text></g><!--link T7_6 to T7_7--><g class="link" data-entity-1="ent0008" data-entity-2="ent0009" data-link-type="dependency" data-source-line="40" id="lnk29"><path d="M213,917.5494 C213,948.9994 213,989.0794 213,1017.5994" fill="none" id="T7_6-to-T7_7" style="stroke:#333333;stroke-width:1;"/><polygon fill="#333333" points="213,1023.5994,217,1014.5994,213,1018.5994,209,1014.5994,213,1023.5994" style="stroke:#333333;stroke-width:1;"/><text fill="#000000" font-family="Verdana" font-size="13" lengthAdjust="spacing" textLength="81.269" x="214" y="975.1263">AUDIT TRAIL</text></g><!--link T8_1 to T8_2--><g class="link" data-entity-1="ent0011" data-entity-2="ent0012" data-link-type="dependency" data-source-line="42" id="lnk30"><path d="M872,145.3994 C872,171.1894 872,204.8594 872,230.7394" fill="none" id="T8_1-to-T8_2" style="stroke:#333333;stroke-width:1;"/><polygon fill="#333333" points="872,236.7394,876,227.7394,872,231.7394,868,227.7394,872,236.7394" style="stroke:#333333;stroke-width:1;"/><text fill="#000000" font-family="Verdana" font-size="13" lengthAdjust="spacing" textLength="67.1772" x="881.3535" y="188.2663">consistsOf</text><text fill="#000000" font-family="Verdana" font-size="13" lengthAdjust="spacing" textLength="83.8843" x="873" y="203.3991">(1..4 rounds)</text></g><!--link T8_2 to T8_3--><g class="link" data-entity-1="ent0012" data-entity-2="ent0013" data-link-type="dependency" data-source-line="43" id="lnk31"><path d="M872,290.0694 C872,320.8094 872,365.5594 872,392.0094" fill="none" id="T8_2-to-T8_3" style="stroke:#333333;stroke-width:1;"/><polygon fill="#333333" points="872,398.0094,876,389.0094,872,393.0094,868,389.0094,872,398.0094" style="stroke:#333333;stroke-width:1;"/><text fill="#000000" font-family="Verdana" font-size="13" lengthAdjust="spacing" textLength="62.2261" x="906.6267" y="332.8563">FOR each</text><text fill="#000000" font-family="Verdana" font-size="13" lengthAdjust="spacing" textLength="129.4795" x="873" y="347.9891">round-category pair</text></g><!--link T8_3 to T8_3a--><g class="link" data-entity-1="ent0013" data-entity-2="ent0014" data-link-type="dependency" data-source-line="44" id="lnk32"><path d="M872,434.8494 C872,462.9694 872,512.1294 872,544.5794" fill="none" id="T8_3-to-T8_3a" style="stroke:#333333;stroke-width:1;"/><polygon fill="#333333" points="872,550.5794,876,541.5794,872,545.5794,868,541.5794,872,550.5794" style="stroke:#333333;stroke-width:1;"/><text fill="#000000" font-family="Verdana" font-size="13" lengthAdjust="spacing" textLength="110.5254" x="873" y="501.2463">SELECT category</text></g><!--link T8_3a to T8_3b--><g class="link" data-entity-1="ent0014" data-entity-2="ent0015" data-link-type="dependency" data-source-line="45" id="lnk33"><path d="M872,603.6994 C872,631.4194 872,669.4094 872,697.1694" fill="none" id="T8_3a-to-T8_3b" style="stroke:#333333;stroke-width:1;"/><polygon fill="#333333" points="872,703.1694,876,694.1694,872,698.1694,868,694.1694,872,703.1694" style="stroke:#333333;stroke-width:1;"/><text fill="#000000" font-family="Verdana" font-size="13" lengthAdjust="spacing" textLength="78.8062" x="940.4407" y="654.6363">summarises</text><text fill="#000000" font-family="Verdana" font-size="13" lengthAdjust="spacing" textLength="213.6875" x="873" y="669.7691">(TournamentResult Registration)</text></g><!--link T8_3b to T8_3c--><g class="link" data-entity-1="ent0015" data-entity-2="ent0016" data-link-type="dependency" data-source-line="46" id="lnk34"><path d="M872,756.4394 C872,787.1894 872,831.9394 872,858.3794" fill="none" id="T8_3b-to-T8_3c" style="stroke:#333333;stroke-width:1;"/><polygon fill="#333333" points="872,864.3794,876,855.3794,872,859.3794,868,855.3794,872,864.3794" style="stroke:#333333;stroke-width:1;"/><text fill="#000000" font-family="Verdana" font-size="13" lengthAdjust="spacing" textLength="103.4224" x="873" y="799.2363">FOR each result</text><text fill="#000000" font-family="Verdana" font-size="13" lengthAdjust="spacing" textLength="55.4722" x="896.9751" y="814.3691">(ranked)</text></g><!--link T8_3c to T8_3c_i--><g class="link" data-entity-1="ent0016" data-entity-2="ent0017" data-link-type="dependency" data-source-line="47" id="lnk35"><path d="M746.05,891.0594 C662.54,898.9394 563.62,914.9194 537,947.0594 C519.5,968.1894 523.9758,995.2435 531.8958,1017.9735" fill="none" id="T8_3c-to-T8_3c_i" style="stroke:#333333;stroke-width:1;"/><polygon fill="#333333" points="533.87,1023.6394,534.6859,1013.8244,532.2248,1018.9178,527.1314,1016.4567,533.87,1023.6394" style="stroke:#333333;stroke-width:1;"/><text fill="#000000" font-family="Verdana" font-size="13" lengthAdjust="spacing" textLength="51.4097" x="594.0085" y="967.6263">submits</text><text fill="#000000" font-family="Verdana" font-size="13" lengthAdjust="spacing" textLength="163.4268" x="538" y="982.7591">(Registration Participant)</text></g><!--link T8_3c to T8_3c_ii--><g class="link" data-entity-1="ent0016" data-entity-2="ent0018" data-link-type="dependency" data-source-line="48" id="lnk36"><path d="M784.11,901.2394 C759.57,910.6394 735.64,925.0294 721,947.0594 C705.96,969.6894 708.1981,995.9779 713.5681,1018.1579" fill="none" id="T8_3c-to-T8_3c_ii" style="stroke:#333333;stroke-width:1;"/><polygon fill="#333333" points="714.98,1023.9894,716.7499,1014.3008,713.8034,1019.1298,708.9745,1016.1833,714.98,1023.9894" style="stroke:#333333;stroke-width:1;"/><text fill="#000000" font-family="Verdana" font-size="13" lengthAdjust="spacing" textLength="112.4106" x="732.6958" y="967.6263">representsNation</text><text fill="#000000" font-family="Verdana" font-size="13" lengthAdjust="spacing" textLength="133.8022" x="722" y="982.7591">(Participant&#8594;Nation)</text></g><!--link T8_3c to T8_3c_iii--><g class="link" data-entity-1="ent0016" data-entity-2="ent0019" data-link-type="dependency" data-source-line="49" id="lnk37"><path d="M868.92,901.0794 C865.63,923.0694 861.81,961.8594 869,994.0594 C871.27,1004.1994 872.9481,1009.3122 877.4381,1018.3822" fill="none" id="T8_3c-to-T8_3c_iii" style="stroke:#333333;stroke-width:1;"/><polygon fill="#333333" points="880.1,1023.7594,879.6919,1013.919,877.8817,1019.2784,872.5223,1017.4682,880.1,1023.7594" style="stroke:#333333;stroke-width:1;"/><text fill="#000000" font-family="Verdana" font-size="13" lengthAdjust="spacing" textLength="69.729" x="925.8054" y="967.6263">memberOf</text><text fill="#000000" font-family="Verdana" font-size="13" lengthAdjust="spacing" textLength="181.3398" x="870" y="982.7591">(Participant&#8594;Club, optional)</text></g><!--link T8_3c to T8_3c_iv--><g class="link" data-entity-1="ent0016" data-entity-2="ent0020" data-link-type="dependency" data-source-line="50" id="lnk38"><path d="M969.24,901.1994 C999.85,910.6394 1031.92,925.0694 1056,947.0594 C1078.29,967.4094 1088.9073,994.8211 1095.0373,1017.8611" fill="none" id="T8_3c-to-T8_3c_iv" style="stroke:#333333;stroke-width:1;"/><polygon fill="#333333" points="1096.58,1023.6594,1098.1315,1013.9335,1095.2944,1018.8275,1090.4004,1015.9904,1096.58,1023.6594" style="stroke:#333333;stroke-width:1;"/><text fill="#000000" font-family="Verdana" font-size="13" lengthAdjust="spacing" textLength="69.5894" x="1134.8865" y="960.1263">recordsFor</text><text fill="#000000" font-family="Verdana" font-size="13" lengthAdjust="spacing" textLength="167.3623" x="1086" y="975.2591">(Registration ScoreCards)</text><text fill="#000000" font-family="Verdana" font-size="13" lengthAdjust="spacing" textLength="142.7842" x="1098.2891" y="990.3919">Aggregate roundTotal</text></g><!--link T8_3c to T8_3c_v--><g class="link" data-entity-1="ent0016" data-entity-2="ent0021" data-link-type="dependency" data-source-line="51" id="lnk39"><path d="M997.57,891.4194 C1095.37,899.7694 1221.14,916.2094 1262,947.0594 C1286.58,965.6194 1297.6038,994.0713 1303.5838,1017.8013" fill="none" id="T8_3c-to-T8_3c_v" style="stroke:#333333;stroke-width:1;"/><polygon fill="#333333" points="1305.05,1023.6194,1306.7295,1013.9148,1303.8282,1018.771,1298.972,1015.8697,1305.05,1023.6194" style="stroke:#333333;stroke-width:1;"/><text fill="#000000" font-family="Verdana" font-size="13" lengthAdjust="spacing" textLength="135.7129" x="1296" y="967.6263">totalPoints DERIVED,</text><text fill="#000000" font-family="Verdana" font-size="13" lengthAdjust="spacing" textLength="95.8877" x="1315.9126" y="982.7591">tieBreakStatus</text></g><!--link T8_3c_v to T8_4--><g class="link" data-entity-1="ent0021" data-entity-2="ent0022" data-link-type="dependency" data-source-line="52" id="lnk40"><path d="M1310,1076.8694 C1310,1103.1394 1310,1137.8494 1310,1164.1994" fill="none" id="T8_3c_v-to-T8_4" style="stroke:#333333;stroke-width:1;"/><polygon fill="#333333" points="1310,1170.1994,1314,1161.1994,1310,1165.1994,1306,1161.1994,1310,1170.1994" style="stroke:#333333;stroke-width:1;"/><text fill="#000000" font-family="Verdana" font-size="13" lengthAdjust="spacing" textLength="80.793" x="1311" y="1121.7163">CONSTRUCT</text><text fill="#000000" font-family="Verdana" font-size="13" lengthAdjust="spacing" textLength="71.8999" x="1315.4465" y="1136.8491">result rows</text></g><!--link T8_4 to T8_5--><g class="link" data-entity-1="ent0022" data-entity-2="ent0023" data-link-type="dependency" data-source-line="53" id="lnk41"><path d="M1310,1223.4594 C1310,1245.7194 1310,1271.8294 1310,1294.0694" fill="none" id="T8_4-to-T8_5" style="stroke:#333333;stroke-width:1;"/><polygon fill="#333333" points="1310,1300.0694,1314,1291.0694,1310,1295.0694,1306,1291.0694,1310,1300.0694" style="stroke:#333333;stroke-width:1;"/><text fill="#000000" font-family="Verdana" font-size="13" lengthAdjust="spacing" textLength="65.8062" x="1311" y="1266.3163">WRITE file</text></g><?plantuml-src VLRTRk8u5BxFKvpjIZkj16XQA6LxiH8DoIZQ5b18ExiIqiX93BL8xCXsw5IhkPq7s4VS9zbZawG1IjiYXVWxt_dzZlkBVgOvXI8ZZ3jgmtX19CaX9ibcBKN9KrTaGiAl_jZyjX14Il5I7VRjJ-imoOXITuSStiWV-ACZc90fbHNay-VXq7KTHpETKOXku3U8HhSm4KcPKwvXBeMcIYiWF0NlUo6aXjbgnH96CWYfAZEj7AT0psHDuIowERQrfcEbs9h3X2PCCS7XWMoeF8D_7C0VIHDD-1e3EBliGJ1rWuatZMvXJgH6JmNXUiaJmQj88ArOpe0eZFdR9PRBzuRUy93j2jaCLU3_3MIrmWEQBdb8rqnfIRG9vBpbvA8clCBQ3Vs-xnyIzdlWXjuuyfhay13hkUJdnUv5a7QWUfmGJJjBNd-ZAf6iC4uRF_rJWGzwC5uiWY_JfjZe8IebPrIcJDADnkRXN-JEBfPyomXyCaL9gVg4D9bDJJspedOqEENekjTgf_SKU5yNIqwtoCGJQZidoup6Gcnggcj3vVz-J3NimUDyqghDaY-yg2b6rJFCOoLaZkuq_MxAfqHMxXLbU2hM6opAuoI807l7CiZ4UctQoVX1CsgYcwQBFzeZYkDzOf3X7kS2pWD_F0RV16acuhqHNNZtdXk1jwLcChK0QWbtZaTc7jyVdwl6D3GoLLYCyB83uHL--lWPc9wgCbQqdiMHcSNtou6pwCz2e2Hv1bVa1KKDOnrTdBgraA-tDK7_LCFwf0VtizcVZtEeZJ0WfLypse6KRMs_EhkbSK-tD6jYwfEJ0ebxy0Mx7WaSLcBMG5NR9LTO8Pf2_0gIyCrSA1jkGncVp3Df9MfCaQHu4-rRdid9H9CkwxMt2PZGp2GogVGKdpk0ITgdjnoJR-nabaY8Z5EhC-JXzi4LwRxvn_P8u6PbR1OJorXD9Uo68Da-qOTCMyoDogxT_A1G0VHuiFRejgTBtKMoI6ZKH24ODsqpEo1Yj1jBIZQWDD6bQf5jFrXXsBM7CUvnAoYqv2angt8-ySsSkukdckUZzUJzDP-54M2DABmm_OnwOpcAdUI5tKyJ_-u952LPJNRTaA7ixUtGxVwns-gtpNNWsE_LGHyFy7f9gEIcSlKsQTyJ5ux5LGO3DAZsBUARDL8PMkoWnbuZze7m4iybBbRwOfgyMdLpd9RCGgzhw12XknNgs6_LwnjylLjyKJWExZ6fKPtKo2Q5iIkCLCrMo7tPwmt0peAwS2oWGfeiQnqjkKLqaqhtA2Wc7GkgqGJXrRAgKSxkVOs84Q7AF2UIALk8Gz4VLj3QrDP9Annp3I0UANRwtc6JDonAqVYASwRjRBTlyFO5Vcnd32Kjq066fHh5jep--_dlj1NXlhKnpsaUKscBkszcvDk1Hh77vblhtDn92k-Jmy0NHgekIaBX7JvUhoLTOw5tlRCQF28qVDgSpAquOUA5mPCtwHXDq3iZq8NLfrF3ArCph-vikeZ2HpV2tk-wW_zFMkIWXfbH_He6U8CRjVqF?></g></svg>